<?xml version="1.0" standalone="no"?>
<!DOCTYPE svg PUBLIC "-//W3C//DTD SVG 20010904//EN"
 "http://www.w3.org/TR/2001/REC-SVG-20010904/DTD/svg10.dtd">
<svg version="1.0" xmlns="http://www.w3.org/2000/svg"
 width="2137.000000pt" height="2137.000000pt" viewBox="0 0 2137.000000 2137.000000"
 preserveAspectRatio="xMidYMid meet">
<metadata>
Created by potrace 1.11, written by Peter Selinger 2001-2013
</metadata>
<g transform="translate(0.000000,2137.000000) scale(0.100000,-0.100000)"
fill="#000000" stroke="none">
<path d="M15230 16310 c-19 -4 -70 -11 -113 -14 -43 -4 -113 -17 -155 -30 -42
-14 -97 -27 -122 -31 -57 -8 -166 -30 -251 -49 -36 -9 -81 -18 -100 -20 -105
-14 -213 -57 -374 -150 -33 -19 -98 -51 -145 -71 -199 -85 -384 -193 -468
-272 -7 -7 -66 -52 -130 -100 -233 -173 -307 -228 -327 -245 -61 -51 -105 -86
-135 -108 -18 -14 -38 -30 -44 -35 -6 -6 -63 -53 -126 -105 -63 -52 -120 -99
-126 -105 -66 -63 -273 -217 -339 -252 -176 -92 -384 -247 -585 -433 -187
-174 -212 -195 -306 -261 -47 -32 -96 -69 -109 -82 -12 -12 -49 -44 -81 -72
-32 -27 -80 -70 -108 -95 -70 -64 -326 -318 -361 -360 -200 -236 -277 -368
-300 -512 -8 -52 -24 -129 -36 -173 -42 -161 -20 -316 68 -470 13 -22 23 -49
23 -60 2 -73 92 -208 235 -351 109 -109 112 -111 265 -186 85 -42 202 -99 260
-126 58 -27 122 -61 143 -75 21 -14 61 -33 90 -42 29 -10 81 -34 117 -55 36
-21 83 -41 105 -45 23 -3 52 -8 65 -10 14 -3 53 -10 88 -15 117 -19 215 -62
227 -100 8 -24 -1 -93 -14 -118 -18 -34 -70 -71 -114 -82 -144 -36 -396 -155
-534 -253 -48 -34 -108 -72 -133 -84 -25 -12 -101 -49 -170 -82 -69 -33 -154
-77 -190 -97 -98 -56 -215 -112 -247 -120 -15 -4 -32 -10 -38 -14 -5 -4 -50
-24 -100 -44 -49 -21 -122 -56 -160 -76 -39 -21 -93 -47 -120 -58 -28 -11 -75
-31 -105 -45 -30 -14 -136 -59 -236 -101 -99 -42 -199 -90 -221 -106 -61 -45
-99 -100 -109 -158 -4 -25 -38 -54 -154 -133 -64 -43 -153 -114 -199 -158
-177 -171 -245 -230 -385 -334 -50 -38 -113 -90 -141 -116 -27 -26 -88 -78
-135 -115 -115 -92 -187 -162 -217 -213 -15 -25 -62 -72 -116 -115 -185 -146
-206 -172 -469 -563 -237 -355 -243 -365 -306 -520 -41 -99 -48 -124 -75 -260
-13 -66 -58 -232 -110 -405 -17 -58 -22 -99 -21 -180 1 -219 30 -417 77 -520
13 -30 27 -82 31 -115 13 -115 64 -264 101 -295 7 -6 43 -13 81 -15 109 -9
136 -13 184 -30 43 -15 120 -20 185 -11 17 3 73 7 125 11 227 14 307 23 415
45 50 10 111 28 137 39 72 31 130 44 238 57 56 6 76 10 120 19 14 3 34 7 45 9
41 8 204 56 300 89 154 53 205 75 255 111 25 19 81 48 125 65 96 39 201 95
287 155 38 27 88 51 128 61 62 17 125 47 132 63 2 4 48 46 103 93 108 93 265
211 440 331 357 244 343 233 338 262 -5 22 3 28 80 65 47 22 107 59 134 83 85
73 101 87 144 114 23 14 52 38 65 53 12 15 83 71 158 125 153 111 192 147 201
185 3 14 11 33 18 42 16 20 125 103 277 209 118 82 320 231 427 314 29 23 83
63 120 90 64 46 170 163 229 251 14 22 36 51 48 64 41 46 213 189 271 227 33
20 69 47 81 58 46 45 163 147 518 450 327 280 348 296 414 315 54 15 187 130
613 531 252 237 366 354 579 595 80 92 160 208 161 235 1 17 2 40 3 53 2 30
-23 127 -39 149 -23 35 -108 79 -214 115 -58 19 -158 57 -221 83 -63 27 -171
63 -240 80 -69 17 -192 52 -275 77 -219 67 -383 112 -437 119 -38 5 -53 2 -82
-15 l-35 -22 -72 37 c-100 50 -144 64 -214 70 -33 2 -73 7 -90 10 -147 27
-543 130 -675 176 -63 22 -191 65 -285 95 -294 95 -395 139 -395 174 0 30 -25
47 -77 52 -28 3 -59 10 -70 15 -10 6 -45 13 -78 16 -33 4 -82 9 -110 12 -103
10 -109 16 -174 149 -79 162 -80 170 -16 260 23 33 53 85 66 115 54 129 131
244 231 342 53 53 79 70 120 83 87 25 208 106 353 235 83 73 127 105 215 152
36 20 91 50 124 67 98 53 291 168 511 305 169 105 226 146 291 211 96 96 119
114 294 245 213 159 244 185 420 344 19 18 62 54 95 81 213 177 470 420 592
560 28 33 78 96 109 140 32 44 84 105 116 135 53 50 61 64 94 157 40 118 50
208 27 265 -27 69 -161 111 -273 88z m-1370 -5465 c76 -12 129 -105 132 -232
4 -161 -8 -187 -142 -286 -36 -26 -95 -71 -131 -100 -36 -29 -78 -61 -93 -72
-51 -36 -396 -303 -570 -440 -92 -73 -218 -163 -280 -199 -113 -68 -137 -87
-283 -227 -109 -105 -226 -198 -603 -481 -287 -214 -538 -396 -871 -628 -178
-124 -274 -201 -419 -336 -36 -33 -81 -75 -100 -93 -94 -87 -226 -162 -530
-301 -218 -100 -500 -251 -692 -372 -55 -34 -58 -35 -240 -44 -116 -6 -138 -5
-138 7 0 27 41 164 77 258 120 313 393 702 728 1036 200 200 361 329 665 537
326 223 1079 669 1295 768 33 15 100 46 148 69 49 22 90 41 93 41 14 0 281
139 359 188 224 138 328 190 536 267 161 60 273 108 524 225 193 90 278 122
394 151 85 21 120 101 66 154 -29 30 -67 32 -132 6 -26 -10 -64 -21 -83 -25
-64 -11 -174 -57 -425 -176 -145 -69 -242 -108 -405 -165 -220 -78 -274 -105
-580 -293 -97 -59 -212 -119 -305 -159 -244 -104 -649 -311 -795 -407 -19 -13
-145 -89 -280 -169 -135 -80 -306 -186 -380 -235 -172 -113 -519 -363 -630
-455 -120 -99 -371 -355 -474 -483 -249 -311 -506 -757 -546 -950 -5 -27 -12
-74 -14 -104 -2 -33 -8 -55 -15 -54 -6 1 -23 2 -39 3 -16 0 -50 19 -82 46 -30
25 -60 45 -65 45 -6 0 -16 5 -22 11 -26 26 255 538 456 834 41 61 102 150 135
199 95 139 133 175 417 402 146 116 277 220 290 232 13 11 69 57 124 103 55
45 129 111 165 146 71 67 139 122 154 123 5 0 17 6 25 14 9 7 43 28 76 46 33
17 65 35 70 40 6 4 30 19 55 32 25 14 194 114 375 223 319 191 375 223 460
270 22 13 67 38 100 57 76 43 158 78 183 78 26 0 68 18 241 102 78 38 182 83
230 100 99 35 229 94 286 130 22 14 51 29 65 33 14 4 70 29 125 55 259 123
393 181 528 226 99 34 138 51 147 64 13 18 156 70 290 105 8 2 62 20 119 39
104 34 132 36 231 21z"/>
<path d="M15679 16299 c-55 -21 -63 -88 -18 -145 29 -36 30 -43 26 -99 -9
-105 -78 -246 -180 -369 -95 -114 -381 -407 -472 -481 -33 -28 -89 -77 -125
-110 -35 -33 -69 -64 -76 -70 -20 -18 -297 -279 -328 -310 -17 -17 -89 -84
-161 -150 -71 -66 -135 -124 -141 -130 -41 -38 -173 -154 -244 -215 -47 -39
-103 -88 -125 -109 -22 -20 -85 -63 -140 -96 -55 -32 -177 -108 -271 -169
-207 -135 -184 -121 -324 -205 -184 -110 -371 -227 -425 -266 -79 -56 -313
-284 -361 -351 -91 -128 -128 -244 -105 -331 11 -42 115 -192 155 -224 37 -31
240 -101 463 -160 40 -11 98 -29 128 -40 83 -31 177 -57 310 -85 65 -14 131
-31 145 -39 14 -7 108 -32 210 -55 102 -23 235 -58 295 -77 61 -19 118 -36
129 -38 10 -3 42 -11 70 -19 76 -21 177 -43 332 -70 179 -32 161 -28 294 -74
63 -22 158 -55 210 -72 172 -60 332 -128 424 -183 50 -30 127 -75 171 -100
101 -58 194 -137 219 -185 18 -34 25 -114 14 -152 -2 -8 -8 -31 -12 -50 -36
-170 -116 -321 -247 -465 -40 -43 -66 -74 -107 -124 -88 -107 -174 -200 -232
-251 -34 -30 -69 -62 -79 -71 -9 -8 -63 -53 -121 -99 -143 -114 -634 -606
-781 -784 -47 -57 -65 -73 -134 -121 -224 -154 -410 -303 -586 -469 -47 -45
-103 -97 -125 -116 -21 -20 -95 -99 -163 -175 -211 -237 -362 -381 -641 -611
-52 -43 -100 -83 -106 -89 -6 -5 -63 -59 -125 -120 -156 -150 -239 -221 -419
-355 -47 -35 -148 -118 -191 -158 -20 -18 -113 -94 -205 -168 -93 -74 -177
-141 -187 -149 -55 -47 -179 -132 -247 -170 -79 -44 -104 -59 -140 -84 -45
-32 -203 -159 -255 -205 -93 -84 -175 -128 -365 -196 -58 -21 -127 -48 -154
-60 -27 -12 -153 -62 -280 -110 -246 -93 -454 -181 -498 -212 -33 -23 -91 -44
-143 -52 -22 -3 -49 -7 -60 -10 -11 -2 -54 -7 -95 -11 -41 -4 -93 -9 -115 -12
-22 -2 -123 -4 -225 -2 -411 4 -427 3 -454 -15 -75 -48 -80 -153 -10 -185 25
-11 113 -27 189 -35 28 -3 84 -8 125 -13 92 -9 450 -9 580 0 52 4 133 16 180
27 81 20 378 104 410 117 8 3 20 7 27 9 6 1 89 28 185 59 166 55 272 104 433
200 39 23 133 78 210 122 77 44 218 131 313 194 94 63 203 133 240 157 37 24
90 64 118 90 28 26 82 76 120 112 39 36 89 90 111 121 23 31 72 80 110 110 91
72 99 79 227 190 61 52 176 147 256 209 164 128 252 206 425 375 66 64 194
177 285 250 241 195 326 273 480 445 103 116 282 295 359 360 35 30 69 60 75
65 52 50 251 213 381 312 186 142 224 176 290 258 119 149 277 317 525 560
444 434 518 512 657 686 254 320 287 383 343 667 18 90 35 106 143 141 110 35
361 97 467 115 14 2 59 11 100 20 41 8 127 25 190 37 158 29 314 72 439 121
58 22 232 82 386 133 586 195 663 219 1345 410 240 68 627 192 715 230 17 7
71 29 120 48 93 36 148 61 345 154 202 95 317 156 387 204 91 64 318 216 479
322 166 109 324 270 324 330 0 30 -32 75 -62 88 -40 16 -99 -15 -113 -61 -23
-75 -126 -164 -355 -304 -127 -78 -195 -124 -370 -249 -53 -37 -384 -201 -625
-309 -76 -34 -381 -144 -610 -219 -48 -16 -384 -114 -545 -159 -196 -54 -424
-123 -610 -184 -124 -41 -304 -100 -400 -131 -96 -32 -258 -88 -360 -125 -233
-86 -289 -100 -730 -186 -129 -25 -244 -48 -255 -50 -18 -4 -232 -39 -295 -49
-14 -2 -51 -6 -82 -9 l-57 -6 -22 42 c-12 24 -30 52 -40 64 -13 13 -15 21 -7
21 7 0 38 7 68 16 30 9 125 29 210 46 85 16 228 48 317 70 146 36 353 81 443
96 210 35 1128 331 1410 454 63 28 254 86 315 97 16 3 58 11 91 19 34 8 74 16
89 19 49 9 169 49 192 63 13 9 37 12 65 10 34 -4 53 1 93 23 28 15 74 33 103
40 29 7 81 23 115 36 34 12 114 39 177 59 241 77 440 163 610 265 86 51 120
71 185 104 33 17 78 43 100 57 23 15 69 42 104 60 35 19 71 39 80 44 9 6 75
46 146 89 159 97 341 231 383 282 17 21 34 51 38 68 3 17 11 37 16 44 6 6 6
12 1 12 -4 0 -23 14 -41 30 -18 17 -42 31 -53 31 -10 1 -25 2 -31 3 -7 1 -29
-2 -48 -6 -19 -4 -60 -10 -90 -13 -30 -4 -107 -24 -170 -45 -63 -21 -126 -41
-140 -44 -86 -16 -141 -32 -204 -58 -128 -54 -292 -107 -380 -122 -66 -12
-145 -29 -211 -46 -62 -16 -176 -38 -285 -55 -80 -12 -251 -49 -340 -72 -52
-13 -192 -49 -310 -79 -276 -71 -291 -75 -500 -144 -162 -54 -240 -77 -281
-85 -108 -21 -351 -95 -539 -165 -177 -66 -295 -103 -430 -136 -198 -48 -301
-75 -535 -139 -154 -43 -296 -81 -315 -86 -19 -5 -42 -11 -50 -13 -60 -16
-346 -88 -359 -91 -9 -2 -47 -11 -86 -20 -38 -9 -79 -19 -90 -21 -11 -2 -31
-6 -45 -9 -44 -10 -132 -27 -300 -56 -123 -21 -127 -22 -210 -39 -30 -6 -83
-13 -118 -15 -88 -5 -182 -38 -232 -81 -12 -10 -25 -10 -55 -3 -53 13 -194 47
-203 48 -4 1 -20 3 -37 6 -16 3 -42 7 -57 9 -66 11 -275 70 -409 115 -135 46
-203 66 -269 77 -14 2 -36 7 -50 10 -14 3 -38 8 -55 11 -52 8 -145 33 -196 54
-28 10 -121 37 -207 58 -86 22 -197 53 -247 69 -49 17 -139 44 -200 62 -60 17
-154 45 -207 61 l-97 29 -46 67 c-26 36 -47 78 -47 93 -1 42 59 143 121 203
225 218 255 241 510 389 46 27 132 80 190 117 58 37 124 78 146 91 22 13 92
63 155 110 64 47 145 105 180 129 72 49 252 181 260 190 3 4 23 19 45 36 22
16 42 31 45 35 3 3 30 25 60 50 64 53 107 89 130 110 8 8 45 40 80 70 35 30
73 64 85 75 11 11 54 51 95 89 41 38 143 134 225 212 83 78 166 157 186 176
117 109 174 161 250 227 125 110 425 415 501 511 127 158 188 313 184 465 -2
52 -10 112 -20 141 -28 85 -93 128 -157 103z"/>
<path d="M6733 16170 c-12 -5 -25 -21 -29 -36 -7 -27 2 -379 10 -424 21 -108
25 -170 21 -345 -4 -194 -6 -223 -19 -330 -3 -27 -8 -72 -11 -100 -5 -52 -39
-232 -57 -300 -5 -22 -12 -49 -14 -60 -4 -21 -29 -106 -65 -222 -12 -38 -45
-153 -74 -258 -102 -370 -106 -379 -459 -1085 -190 -380 -234 -463 -331 -625
-133 -221 -191 -367 -167 -420 11 -23 9 -26 -21 -41 -17 -9 -57 -34 -87 -54
-30 -20 -84 -52 -120 -70 -71 -37 -112 -65 -179 -122 -81 -70 -76 -52 40 152
42 74 87 155 101 180 14 25 35 63 48 85 78 137 160 285 160 289 0 22 256 452
346 582 35 51 81 132 100 181 20 48 43 102 50 120 8 17 14 34 14 38 0 22 115
251 154 305 30 41 45 70 51 95 12 51 80 251 113 335 37 94 189 554 196 595 3
17 8 57 11 90 8 80 21 136 49 220 27 81 66 236 70 280 1 17 -2 41 -7 55 -5 14
-11 145 -12 291 -4 389 -14 448 -87 502 -82 61 -140 67 -283 27 -90 -26 -103
-32 -135 -70 -19 -23 -68 -78 -108 -123 -45 -51 -87 -111 -109 -157 -88 -181
-227 -342 -644 -746 -107 -105 -151 -152 -219 -239 -30 -38 -65 -81 -76 -95
-50 -58 -151 -180 -184 -220 -19 -24 -39 -48 -45 -54 -5 -6 -32 -38 -60 -71
-27 -33 -61 -72 -75 -87 -117 -124 -204 -235 -237 -299 -24 -50 -92 -134 -188
-234 -64 -68 -198 -215 -221 -244 -10 -13 -24 -28 -30 -35 -33 -35 -132 -178
-144 -207 -7 -19 -39 -65 -70 -104 -32 -38 -78 -101 -103 -140 -25 -38 -71
-104 -104 -146 -32 -42 -76 -105 -96 -141 -21 -35 -51 -72 -65 -80 -56 -33
-65 -52 -66 -137 0 -88 10 -109 65 -131 24 -10 37 -10 72 4 23 9 53 16 66 16
47 0 86 33 184 154 92 114 213 240 292 303 44 36 105 88 135 117 30 29 93 84
140 123 47 38 140 129 208 201 68 72 149 148 180 168 85 55 208 158 287 239
39 40 97 93 130 120 113 90 296 277 396 405 23 30 45 57 49 60 3 3 28 34 55
70 28 36 55 70 60 76 6 6 33 41 60 77 28 37 55 67 61 67 6 0 27 -16 48 -36 38
-37 38 -33 14 -129 -6 -22 -12 -47 -13 -55 -25 -111 -71 -245 -124 -364 -10
-23 -33 -75 -51 -116 -18 -41 -43 -97 -55 -125 -12 -27 -30 -69 -40 -92 -13
-30 -32 -51 -65 -71 -69 -43 -137 -157 -379 -637 -140 -277 -144 -285 -302
-645 -131 -299 -219 -510 -219 -527 0 -24 -60 -142 -124 -246 -78 -126 -101
-168 -209 -377 -44 -85 -95 -178 -114 -207 -39 -60 -115 -126 -323 -283 -47
-35 -87 -67 -90 -70 -3 -3 -27 -22 -55 -41 -27 -18 -52 -37 -55 -40 -3 -3 -54
-42 -115 -87 -60 -45 -115 -86 -120 -90 -15 -13 -96 -69 -270 -190 -183 -128
-225 -162 -340 -278 -90 -92 -153 -141 -451 -351 -232 -164 -255 -185 -630
-589 -102 -110 -129 -137 -388 -404 -286 -295 -370 -391 -511 -585 -203 -280
-313 -459 -399 -655 -14 -33 -70 -134 -85 -155 -4 -5 -13 -23 -19 -40 -6 -16
-25 -70 -43 -120 -18 -49 -36 -95 -41 -101 -4 -6 -20 -49 -33 -95 -14 -46 -37
-118 -51 -159 -49 -147 -52 -162 -49 -275 4 -137 11 -185 40 -305 42 -175 155
-379 294 -530 22 -25 41 -48 41 -52 0 -14 64 -70 100 -88 56 -29 108 -40 215
-46 89 -6 105 -10 148 -37 40 -25 60 -30 105 -30 59 0 135 26 202 70 20 13 76
39 125 59 50 20 125 53 168 75 43 22 122 51 175 66 91 25 101 31 153 83 31 31
60 63 65 71 5 9 29 29 54 46 43 30 196 177 306 294 135 143 275 342 370 524
68 129 135 239 214 350 280 391 529 828 565 990 3 17 41 91 84 165 43 74 91
159 107 188 15 29 37 63 49 75 45 46 76 98 159 262 47 94 122 226 167 295 166
254 266 446 300 580 11 41 28 98 38 125 11 28 22 68 25 90 4 21 18 76 32 122
14 46 24 91 22 101 -5 24 5 32 472 336 107 70 214 141 238 157 23 16 45 29 47
29 3 0 28 15 58 33 74 45 82 50 182 108 96 56 464 299 486 322 8 7 120 93 249
190 367 277 765 579 806 612 21 17 52 41 69 55 18 14 81 66 140 115 192 162
470 353 805 555 265 160 846 576 1105 792 11 9 83 66 159 128 77 61 167 134
200 163 290 249 495 563 513 787 7 84 -11 130 -60 153 -48 23 -69 21 -102 -8
-24 -23 -26 -30 -20 -68 20 -119 -2 -201 -97 -362 -137 -233 -266 -355 -748
-705 -97 -71 -267 -200 -320 -243 -20 -16 -151 -113 -225 -166 -109 -78 -650
-444 -831 -561 -212 -137 -376 -261 -539 -405 -108 -96 -380 -307 -510 -396
-27 -19 -108 -79 -180 -135 -71 -55 -211 -160 -310 -234 -99 -73 -182 -136
-185 -140 -37 -44 -608 -410 -639 -410 -6 0 -11 -4 -11 -10 0 -5 -5 -10 -10
-10 -14 0 -240 -136 -365 -220 -85 -57 -260 -165 -330 -204 -11 -7 -53 -33
-93 -59 -40 -26 -123 -76 -185 -111 -488 -277 -808 -491 -991 -661 -6 -6 -101
-89 -211 -185 -294 -256 -453 -411 -694 -676 -168 -185 -174 -191 -271 -310
-122 -149 -507 -700 -649 -929 -24 -38 -52 -82 -62 -97 -11 -15 -19 -29 -19
-31 0 -3 -24 -44 -53 -93 -111 -184 -183 -344 -213 -469 -20 -84 -26 -122 -31
-186 -5 -74 -5 -77 23 -102 16 -15 36 -27 44 -27 8 0 -5 -11 -30 -23 -25 -12
-66 -35 -91 -50 l-46 -27 -26 53 c-14 28 -40 82 -56 119 l-31 68 22 42 c12 23
39 112 60 197 21 86 40 163 43 171 10 42 29 77 64 116 21 25 42 60 45 78 4 19
17 44 29 57 24 25 174 250 222 334 72 125 260 378 432 580 14 17 58 80 98 140
39 61 89 130 110 155 20 25 54 65 74 89 20 25 50 61 67 80 18 20 48 63 68 96
43 73 54 85 375 410 141 143 291 303 334 355 106 129 117 140 183 180 54 33
88 56 322 213 57 38 154 94 215 124 62 31 123 64 137 73 14 10 41 22 61 28 20
5 126 64 235 130 178 107 251 148 486 276 44 24 86 58 120 97 29 33 72 69 95
81 23 12 73 48 110 81 38 34 113 97 168 140 106 84 254 209 294 247 95 92 191
158 237 166 52 8 61 14 114 70 130 138 141 146 530 384 248 152 396 255 580
404 115 94 141 119 157 151 19 35 30 44 283 225 11 8 85 59 163 113 220 151
375 263 397 287 22 23 582 390 596 390 3 0 17 9 32 19 15 11 100 64 189 120
208 129 268 172 372 274 47 45 140 132 206 192 200 182 244 225 382 363 126
126 173 188 173 229 0 10 14 44 31 76 39 75 43 100 23 142 -19 42 -60 61 -142
70 -140 14 -153 11 -280 -52 -172 -87 -474 -246 -637 -336 -170 -93 -465 -305
-680 -487 -76 -65 -220 -196 -223 -202 -7 -16 -90 -67 -190 -117 -147 -74
-216 -128 -417 -327 -88 -87 -110 -104 -156 -118 -49 -14 -68 -30 -204 -167
-105 -107 -163 -158 -195 -172 -25 -11 -72 -39 -105 -63 -34 -23 -88 -53 -120
-65 -69 -25 -147 -86 -290 -223 -79 -76 -119 -106 -188 -142 l-89 -45 48 88
c26 48 63 113 83 143 19 30 40 64 47 75 6 11 24 43 41 70 113 190 539 1031
612 1208 39 96 96 262 105 308 8 45 19 85 92 342 41 142 76 268 78 280 3 12
10 47 15 77 6 30 13 66 16 80 3 14 8 41 11 60 3 19 7 41 9 48 3 7 8 47 11 90
3 42 8 80 10 83 8 14 18 237 19 394 0 148 -5 238 -20 327 -2 13 -6 44 -9 71
-3 26 -9 68 -12 95 -4 26 -7 93 -8 150 -2 87 -5 106 -22 122 -23 23 -71 33
-101 20z m-3385 -6957 c-7 -16 -15 -32 -19 -38 -4 -5 -36 -66 -72 -135 -171
-332 -356 -649 -570 -980 -214 -330 -292 -469 -383 -685 -62 -146 -106 -210
-304 -439 -417 -483 -406 -472 -626 -586 -65 -34 -144 -76 -174 -93 -68 -37
-77 -42 -115 -60 l-31 -13 18 35 c9 20 20 56 23 81 9 62 15 102 20 120 23 91
58 183 103 270 52 102 190 340 203 350 3 3 12 16 19 30 53 100 391 591 542
786 84 109 260 319 288 344 3 3 50 57 105 120 100 116 292 312 440 449 107
100 532 468 542 470 2 1 -3 -11 -9 -26z"/>
<path d="M4655 10042 c-30 -6 -65 -51 -65 -85 0 -53 -31 -137 -102 -274 -38
-75 -86 -181 -107 -237 -21 -55 -74 -177 -118 -271 -44 -93 -131 -287 -192
-430 -62 -143 -126 -288 -142 -323 -16 -35 -29 -65 -29 -67 0 -3 -53 -112
-118 -243 -65 -130 -144 -295 -177 -367 -153 -335 -236 -478 -541 -929 -249
-369 -265 -391 -393 -531 -40 -44 -110 -129 -156 -190 -102 -135 -115 -151
-190 -233 -107 -117 -258 -262 -310 -296 -160 -106 -256 -167 -300 -191 -27
-15 -55 -31 -60 -36 -11 -8 -29 -12 -120 -24 -66 -9 -114 -15 -145 -20 -14 -3
-43 -7 -65 -10 -78 -11 -101 -17 -198 -47 -82 -25 -100 -34 -112 -58 -16 -31
-19 -68 -7 -86 28 -43 138 -50 264 -19 51 13 114 26 140 29 26 3 58 8 70 10
13 3 46 8 73 11 154 18 236 58 485 235 203 144 363 309 626 646 44 56 106 132
139 169 112 126 200 244 315 422 63 98 149 228 191 288 95 136 154 232 251
405 42 74 86 153 98 175 30 51 110 212 110 220 0 3 76 159 169 348 93 188 192
394 219 457 59 136 177 401 232 520 21 47 54 119 73 160 19 41 49 116 67 165
18 50 62 162 97 250 90 221 116 302 117 361 1 71 -32 107 -89 96z"/>
</g>
</svg>
