<?xml version="1.0" standalone="no"?>
<!DOCTYPE svg PUBLIC "-//W3C//DTD SVG 20010904//EN"
 "http://www.w3.org/TR/2001/REC-SVG-20010904/DTD/svg10.dtd">
<svg version="1.0" xmlns="http://www.w3.org/2000/svg"
 width="260.000000pt" height="260.000000pt" viewBox="0 0 260.000000 260.000000"
 preserveAspectRatio="xMidYMid meet">
<metadata>
Created by potrace 1.11, written by Peter Selinger 2001-2013
</metadata>
<g transform="translate(0.000000,260.000000) scale(0.100000,-0.100000)"
fill="#000000" stroke="none">
<path d="M1770 1956 c-66 -19 -103 -40 -220 -129 -217 -165 -265 -211 -281
-269 -8 -31 -6 -46 9 -81 16 -36 29 -48 84 -75 36 -18 73 -32 82 -32 9 0 16
-7 16 -15 0 -9 -57 -42 -145 -85 -80 -39 -145 -75 -145 -79 0 -4 -21 -23 -47
-43 -137 -105 -209 -201 -225 -299 -8 -50 -7 -73 3 -104 13 -38 17 -40 57 -43
83 -6 234 41 302 95 8 6 47 35 85 63 39 29 79 62 90 74 11 11 43 37 70 58 28
20 60 47 71 60 12 12 49 46 83 73 169 137 235 203 229 232 -3 17 -109 60 -168
68 -63 8 -209 52 -225 66 -5 5 -17 9 -27 9 -9 0 -22 8 -27 19 -17 31 26 80
119 139 164 102 329 254 315 290 -3 7 -5 16 -5 18 0 8 -55 2 -100 -10z m-82
-648 c10 -14 -1 -58 -15 -58 -5 0 -19 -10 -33 -23 -14 -12 -41 -34 -60 -47
-19 -13 -66 -50 -105 -80 -38 -31 -90 -70 -115 -88 -25 -17 -57 -41 -71 -54
-35 -30 -186 -104 -196 -95 -10 11 29 86 70 132 19 23 64 61 99 85 64 44 259
148 356 188 51 22 74 49 30 37 -18 -5 -20 -4 -8 4 20 14 35 14 48 -1z m-73
-18 c-3 -5 -11 -10 -18 -10 -17 0 -232 -107 -296 -148 -117 -73 -210 -171
-227 -236 -3 -14 -10 -26 -14 -26 -43 0 39 129 127 200 63 51 199 139 215 140
4 0 44 17 90 38 118 55 135 61 123 42z"/>
<path d="M1894 1954 c10 -26 -19 -66 -109 -149 -111 -102 -106 -97 -197 -155
-84 -54 -110 -84 -102 -117 7 -25 14 -28 203 -78 151 -40 216 -70 217 -100 0
-22 -35 -77 -75 -114 -23 -22 -232 -218 -331 -310 -144 -134 -321 -232 -426
-236 -85 -3 -90 -27 -6 -31 95 -5 248 59 328 140 18 17 54 49 80 71 171 141
410 381 437 437 22 46 23 47 102 66 143 35 379 113 437 144 70 37 141 97 116
98 -9 0 -21 -6 -25 -13 -20 -33 -136 -90 -258 -128 -71 -22 -149 -47 -173 -55
-41 -15 -166 -44 -187 -44 -27 1 32 29 73 35 26 4 85 19 132 35 47 15 126 40
175 55 113 34 245 108 245 136 0 12 -73 3 -100 -12 -8 -5 -62 -20 -120 -33
-58 -13 -174 -44 -258 -69 -85 -25 -168 -48 -185 -51 -18 -2 -52 -7 -77 -11
-34 -5 -68 -1 -140 20 -52 15 -108 30 -125 34 -33 7 -41 27 -22 52 6 8 49 40
93 70 95 63 268 219 290 261 15 30 11 68 -8 68 -5 0 -7 -7 -4 -16z"/>
<path d="M765 1942 c-5 -4 -28 -29 -50 -57 -21 -27 -47 -57 -56 -65 -28 -26
-176 -206 -213 -260 -34 -50 -40 -79 -11 -63 7 5 44 37 83 73 38 36 85 79 104
96 19 17 46 46 61 65 15 20 27 28 27 19 0 -28 -21 -89 -35 -104 -15 -15 -81
-143 -106 -206 -29 -76 -63 -123 -118 -163 -110 -82 -218 -175 -284 -247 -82
-89 -141 -200 -139 -262 3 -59 44 -118 83 -118 11 0 27 -6 34 -14 18 -17 69
-8 117 22 42 27 119 121 174 212 55 93 146 294 149 332 2 23 11 35 46 56 24
14 86 57 138 96 51 39 141 104 200 144 176 122 231 175 231 225 0 27 -17 20
-25 -10 -3 -16 -16 -39 -28 -52 -24 -25 -126 -103 -223 -169 -34 -23 -68 -47
-75 -54 -25 -24 -170 -131 -199 -147 -145 -82 -251 -156 -318 -221 -105 -102
-201 -249 -197 -298 1 -13 -3 -21 -9 -19 -24 9 -4 73 42 141 73 107 74 108
127 165 79 86 88 93 171 140 44 24 115 72 159 106 44 34 103 77 130 95 28 18
64 45 80 61 17 15 75 57 130 94 55 36 124 89 153 117 51 49 67 88 37 88 -27 0
-118 -50 -195 -109 -74 -55 -85 -64 -145 -115 -16 -14 -33 -26 -37 -26 -3 0
-21 -12 -38 -26 -30 -26 -30 -24 23 82 64 127 90 226 85 315 -5 88 -24 87 -21
-1 2 -95 -25 -188 -95 -329 -40 -80 -64 -116 -80 -122 l-23 -9 19 28 c42 59
121 221 142 287 42 137 29 247 -25 207z m-233 -828 c-95 -214 -155 -315 -241
-402 -38 -38 -101 -71 -101 -52 0 5 10 12 22 16 32 10 102 85 128 138 13 25
26 46 30 46 3 0 19 26 35 58 16 31 48 91 72 133 24 42 48 91 54 110 14 40 32
65 37 51 1 -5 -15 -49 -36 -98z m-159 -81 c-25 -43 -58 -99 -72 -124 -44 -78
-114 -147 -140 -137 -11 3 17 67 53 123 47 71 179 215 198 215 4 0 -13 -35
-39 -77z"/>
</g>
</svg>
